<svg width="85" height="62" viewBox="0 0 85 62" fill="none" xmlns="http://www.w3.org/2000/svg">
<g clip-path="url(#clip0_4_2)">
<path opacity="0.29" d="M34.3907 8.23398L33.5441 8.76615L33.5512 8.77751L33.5587 8.78868L34.3907 8.23398ZM33.3007 46.82L32.4595 46.2792L32.4549 46.2864L32.4504 46.2936L33.3007 46.82ZM16.2967 61.208L15.4023 61.6552L15.8357 62.5221L16.7158 62.116L16.2967 61.208ZM14.3347 57.284L13.9524 56.36L12.96 56.7706L13.4403 57.7312L14.3347 57.284ZM25.2347 49.218L24.484 48.5574L24.4764 48.566L24.469 48.5748L25.2347 49.218ZM30.9027 38.1L29.9326 37.8575L29.9214 37.9023L29.9143 37.9479L30.9027 38.1ZM30.9027 28.944L31.8514 28.6278L31.314 27.0155L30.1656 28.2683L30.9027 28.944ZM5.83268 29.816L5.14221 30.5394L5.15101 30.5478L5.16001 30.5559L5.83268 29.816ZM6.05068 5.39998L6.72495 6.13846L6.73352 6.13064L6.74191 6.12262L6.05068 5.39998ZM79.2987 8.23398L78.4521 8.76615L78.4592 8.77751L78.4667 8.78868L79.2987 8.23398ZM78.2087 46.82L77.3675 46.2792L77.3629 46.2864L77.3584 46.2936L78.2087 46.82ZM61.2047 61.208L60.3103 61.6552L60.7437 62.5221L61.6238 62.116L61.2047 61.208ZM59.2427 57.284L58.8604 56.36L57.868 56.7706L58.3483 57.7312L59.2427 57.284ZM70.1427 49.218L69.392 48.5574L69.3844 48.566L69.377 48.5748L70.1427 49.218ZM75.8107 38.1L74.8406 37.8575L74.8294 37.9023L74.8223 37.9479L75.8107 38.1ZM75.8107 28.944L76.7594 28.6278L76.222 27.0155L75.0736 28.2683L75.8107 28.944ZM50.7407 29.816L50.0502 30.5394L50.059 30.5478L50.068 30.5559L50.7407 29.816ZM50.9587 5.39998L51.633 6.13846L51.6415 6.13064L51.6499 6.12262L50.9587 5.39998ZM18.9127 1.60398C25.7645 1.60398 30.5661 4.02843 33.5441 8.76615L35.2373 7.70181C31.8207 2.2662 26.3036 -0.396027 18.9127 -0.396027V1.60398ZM33.5587 8.78868C34.939 10.8592 36.0631 13.4433 36.9139 16.5631L38.8435 16.0369C37.9503 12.762 36.7491 9.96879 35.2228 7.67928L33.5587 8.78868ZM36.9139 16.5631C37.7614 19.6703 38.1867 22.9242 38.1867 26.328H40.1867C40.1867 22.7558 39.7401 19.3243 38.8435 16.0369L36.9139 16.5631ZM38.1867 26.328C38.1867 33.7019 36.2754 40.3434 32.4595 46.2792L34.1419 47.3607C38.174 41.0886 40.1867 34.0687 40.1867 26.328H38.1867ZM32.4504 46.2936C28.7906 52.2056 23.286 56.8808 15.8776 60.3L16.7158 62.116C24.4221 58.5592 30.2534 53.6424 34.151 47.3463L32.4504 46.2936ZM17.1911 60.7608L15.2291 56.8368L13.4403 57.7312L15.4023 61.6552L17.1911 60.7608ZM14.7171 58.208C19.0863 56.4001 22.8494 53.6124 26.0004 49.8612L24.469 48.5748C21.5161 52.0902 18.0125 54.6799 13.9524 56.36L14.7171 58.208ZM25.9854 49.8786C29.2756 46.1398 31.2739 42.2638 31.8911 38.2521L29.9143 37.9479C29.3689 41.4935 27.5885 45.0295 24.484 48.5574L25.9854 49.8786ZM31.8728 38.3425C32.3263 36.5289 32.5567 34.7758 32.5567 33.086H30.5567C30.5567 34.5935 30.3512 36.1831 29.9326 37.8575L31.8728 38.3425ZM32.5567 33.086C32.5567 31.531 32.3232 30.0431 31.8514 28.6278L29.954 29.2602C30.3542 30.4609 30.5567 31.7343 30.5567 33.086H32.5567ZM30.1656 28.2683C27.1788 31.5265 23.2434 33.176 18.2587 33.176V35.176C23.738 35.176 28.2319 33.3375 31.6399 29.6197L30.1656 28.2683ZM18.2587 33.176C13.374 33.176 9.48671 31.7864 6.50536 29.0761L5.16001 30.5559C8.57333 33.659 12.9701 35.176 18.2587 35.176V33.176ZM6.52316 29.0926C3.55965 26.2638 2.03668 22.4031 2.03668 17.39H0.0366821C0.0366821 22.8409 1.71105 27.2642 5.14221 30.5394L6.52316 29.0926ZM2.03668 17.39C2.03668 12.7009 3.61014 8.98243 6.72495 6.13846L5.37641 4.66149C1.80589 7.92154 0.0366821 12.1965 0.0366821 17.39H2.03668ZM6.74191 6.12262C9.87364 3.12704 13.9017 1.60398 18.9127 1.60398V-0.396027C13.4597 -0.396027 8.91306 1.27824 5.35946 4.67734L6.74191 6.12262ZM63.8207 1.60398C70.6725 1.60398 75.4741 4.02843 78.4521 8.76615L80.1453 7.70181C76.7287 2.2662 71.2116 -0.396027 63.8207 -0.396027V1.60398ZM78.4667 8.78868C79.847 10.8592 80.9711 13.4433 81.8219 16.5631L83.7515 16.0369C82.8583 12.762 81.6571 9.96879 80.1308 7.67928L78.4667 8.78868ZM81.8219 16.5631C82.6694 19.6703 83.0947 22.9242 83.0947 26.328H85.0947C85.0947 22.7558 84.6481 19.3243 83.7515 16.0369L81.8219 16.5631ZM83.0947 26.328C83.0947 33.7019 81.1834 40.3434 77.3675 46.2792L79.0499 47.3607C83.082 41.0885 85.0947 34.0687 85.0947 26.328H83.0947ZM77.3584 46.2936C73.6986 52.2056 68.194 56.8808 60.7857 60.3L61.6238 62.116C69.3301 58.5592 75.1614 53.6424 79.059 47.3463L77.3584 46.2936ZM62.0991 60.7608L60.1371 56.8368L58.3483 57.7312L60.3103 61.6552L62.0991 60.7608ZM59.6251 58.208C63.9943 56.4001 67.7574 53.6124 70.9084 49.8612L69.377 48.5748C66.4241 52.0902 62.9205 54.6799 58.8604 56.36L59.6251 58.208ZM70.8934 49.8786C74.1836 46.1398 76.1819 42.2638 76.7991 38.2521L74.8223 37.9479C74.2769 41.4935 72.4965 45.0295 69.392 48.5574L70.8934 49.8786ZM76.7809 38.3425C77.2343 36.5289 77.4647 34.7758 77.4647 33.086H75.4647C75.4647 34.5935 75.2592 36.1831 74.8406 37.8575L76.7809 38.3425ZM77.4647 33.086C77.4647 31.531 77.2312 30.0431 76.7594 28.6278L74.862 29.2602C75.2622 30.4609 75.4647 31.7343 75.4647 33.086H77.4647ZM75.0736 28.2683C72.0868 31.5265 68.1514 33.176 63.1667 33.176V35.176C68.646 35.176 73.1399 33.3375 76.5479 29.6197L75.0736 28.2683ZM63.1667 33.176C58.282 33.176 54.3947 31.7864 51.4134 29.0761L50.068 30.5559C53.4813 33.659 57.8781 35.176 63.1667 35.176V33.176ZM51.4312 29.0926C48.4677 26.2638 46.9447 22.4031 46.9447 17.39H44.9447C44.9447 22.8409 46.6191 27.2642 50.0502 30.5394L51.4312 29.0926ZM46.9447 17.39C46.9447 12.7009 48.5182 8.98243 51.633 6.13846L50.2844 4.66149C46.7139 7.92154 44.9447 12.1965 44.9447 17.39H46.9447ZM51.6499 6.12262C54.7817 3.12704 58.8097 1.60398 63.8207 1.60398V-0.396027C58.3677 -0.396027 53.8211 1.27824 50.2675 4.67734L51.6499 6.12262Z" fill="#964F4C"/>
</g>
<defs>
<clipPath id="clip0_4_2">
<rect width="85" height="62" fill="white"/>
</clipPath>
</defs>
</svg>
